<mxfile host="app.diagrams.net" agent="Mozilla/5.0 (Macintosh; Intel Mac OS X 10_15_7) AppleWebKit/605.1.15 (KHTML, like Gecko) Version/17.5 Safari/605.1.15" version="24.7.6" pages="2">
  <diagram name="opt1" id="Ku7lWS_anN9N1ORzamxg">
    <mxGraphModel dx="1088" dy="1951" grid="1" gridSize="10" guides="1" tooltips="1" connect="1" arrows="1" fold="1" page="1" pageScale="1" pageWidth="827" pageHeight="1169" math="0" shadow="0">
      <root>
        <mxCell id="0" />
        <mxCell id="1" parent="0" />
        <mxCell id="jKtWGzYfRKbAmbdB88QO-2" value="START" style="ellipse;whiteSpace=wrap;html=1;" vertex="1" parent="1">
          <mxGeometry x="270" y="-1160" width="120" height="60" as="geometry" />
        </mxCell>
        <mxCell id="jKtWGzYfRKbAmbdB88QO-3" value="Initialise un tableau vide &quot;result&quot;" style="whiteSpace=wrap;html=1;" vertex="1" parent="1">
          <mxGeometry x="270" y="-760" width="120" height="60" as="geometry" />
        </mxCell>
        <mxCell id="jKtWGzYfRKbAmbdB88QO-4" value="User enter&amp;nbsp;&lt;div&gt;characters in input&lt;/div&gt;&lt;div style=&quot;text-align: start;&quot;&gt;&amp;nbsp; &amp;nbsp;(inputHeader)&lt;/div&gt;&lt;div&gt;&lt;br&gt;&lt;/div&gt;" style="rounded=1;whiteSpace=wrap;html=1;" vertex="1" parent="1">
          <mxGeometry x="270" y="-1070" width="120" height="60" as="geometry" />
        </mxCell>
        <mxCell id="jKtWGzYfRKbAmbdB88QO-5" value="&lt;div&gt;input.lenght &amp;gt;= 3&lt;br&gt;&lt;/div&gt;" style="rhombus;whiteSpace=wrap;html=1;rounded=1;" vertex="1" parent="1">
          <mxGeometry x="263.75" y="-990" width="132.5" height="90" as="geometry" />
        </mxCell>
        <mxCell id="jKtWGzYfRKbAmbdB88QO-6" value="&lt;div&gt;MESSAGE&lt;/div&gt;ERROR : Veuillez entrer minimum 3 caractères" style="rounded=1;whiteSpace=wrap;html=1;" vertex="1" parent="1">
          <mxGeometry x="100" y="-990" width="120" height="90" as="geometry" />
        </mxCell>
        <mxCell id="jKtWGzYfRKbAmbdB88QO-7" value="input convert &amp;nbsp;to lowercase" style="rounded=1;whiteSpace=wrap;html=1;" vertex="1" parent="1">
          <mxGeometry x="266.25" y="-870" width="130" height="60" as="geometry" />
        </mxCell>
        <mxCell id="jKtWGzYfRKbAmbdB88QO-8" value="Boucle for&amp;nbsp;&lt;div&gt;Check name, description&lt;/div&gt;" style="rounded=1;whiteSpace=wrap;html=1;" vertex="1" parent="1">
          <mxGeometry x="270" y="-670" width="120" height="60" as="geometry" />
        </mxCell>
        <mxCell id="jKtWGzYfRKbAmbdB88QO-9" value="Add recipes in table results" style="rounded=1;whiteSpace=wrap;html=1;" vertex="1" parent="1">
          <mxGeometry x="270" y="-584.5" width="120" height="60" as="geometry" />
        </mxCell>
        <mxCell id="jKtWGzYfRKbAmbdB88QO-10" value="yes" style="edgeStyle=orthogonalEdgeStyle;rounded=0;orthogonalLoop=1;jettySize=auto;html=1;" edge="1" parent="1" source="jKtWGzYfRKbAmbdB88QO-11" target="jKtWGzYfRKbAmbdB88QO-12">
          <mxGeometry relative="1" as="geometry" />
        </mxCell>
        <mxCell id="jKtWGzYfRKbAmbdB88QO-11" value="if results&amp;nbsp;" style="rhombus;whiteSpace=wrap;html=1;" vertex="1" parent="1">
          <mxGeometry x="250" y="-490" width="150" height="100" as="geometry" />
        </mxCell>
        <mxCell id="jKtWGzYfRKbAmbdB88QO-12" value="Error message" style="rounded=1;whiteSpace=wrap;html=1;" vertex="1" parent="1">
          <mxGeometry x="35" y="-470" width="120" height="60" as="geometry" />
        </mxCell>
        <mxCell id="jKtWGzYfRKbAmbdB88QO-13" value="clear cardsContainer" style="rounded=1;whiteSpace=wrap;html=1;" vertex="1" parent="1">
          <mxGeometry x="265" y="-360" width="120" height="60" as="geometry" />
        </mxCell>
        <mxCell id="jKtWGzYfRKbAmbdB88QO-14" value="Call display results" style="rounded=1;whiteSpace=wrap;html=1;" vertex="1" parent="1">
          <mxGeometry x="265" y="-270" width="120" height="60" as="geometry" />
        </mxCell>
        <mxCell id="jKtWGzYfRKbAmbdB88QO-15" value="call generate card" style="rounded=1;whiteSpace=wrap;html=1;" vertex="1" parent="1">
          <mxGeometry x="270" y="-190" width="120" height="60" as="geometry" />
        </mxCell>
        <mxCell id="jKtWGzYfRKbAmbdB88QO-16" value="END" style="ellipse;whiteSpace=wrap;html=1;" vertex="1" parent="1">
          <mxGeometry x="280" y="-80" width="90" height="50" as="geometry" />
        </mxCell>
      </root>
    </mxGraphModel>
  </diagram>
  <diagram id="JZUFvrA8q4jRNli-p003" name="opt2">
    <mxGraphModel dx="1009" dy="1906" grid="1" gridSize="10" guides="1" tooltips="1" connect="1" arrows="1" fold="1" page="1" pageScale="1" pageWidth="827" pageHeight="1169" math="0" shadow="0">
      <root>
        <mxCell id="0" />
        <mxCell id="1" parent="0" />
        <mxCell id="p67Zzad0Gv08EdMIW1q7-1" style="edgeStyle=orthogonalEdgeStyle;rounded=0;orthogonalLoop=1;jettySize=auto;html=1;entryX=0.5;entryY=0;entryDx=0;entryDy=0;" parent="1" source="p67Zzad0Gv08EdMIW1q7-2" target="p67Zzad0Gv08EdMIW1q7-7" edge="1">
          <mxGeometry relative="1" as="geometry" />
        </mxCell>
        <mxCell id="p67Zzad0Gv08EdMIW1q7-2" value="User enter&amp;nbsp;&lt;div&gt;characters in input&lt;/div&gt;&lt;div style=&quot;text-align: start;&quot;&gt;&amp;nbsp; &amp;nbsp;(inputHeader)&lt;/div&gt;&lt;div&gt;&lt;br&gt;&lt;/div&gt;" style="rounded=1;whiteSpace=wrap;html=1;" parent="1" vertex="1">
          <mxGeometry x="255" y="-1050" width="120" height="60" as="geometry" />
        </mxCell>
        <mxCell id="p67Zzad0Gv08EdMIW1q7-3" value="&lt;div&gt;MESSAGE&lt;/div&gt;ERROR : Veuillez entrer minimum 3 caractères" style="rounded=1;whiteSpace=wrap;html=1;" parent="1" vertex="1">
          <mxGeometry x="42.5" y="-950" width="120" height="90" as="geometry" />
        </mxCell>
        <mxCell id="p67Zzad0Gv08EdMIW1q7-4" style="edgeStyle=orthogonalEdgeStyle;rounded=0;orthogonalLoop=1;jettySize=auto;html=1;entryX=0.5;entryY=0;entryDx=0;entryDy=0;" parent="1" source="p67Zzad0Gv08EdMIW1q7-5" target="p67Zzad0Gv08EdMIW1q7-2" edge="1">
          <mxGeometry relative="1" as="geometry" />
        </mxCell>
        <mxCell id="p67Zzad0Gv08EdMIW1q7-5" value="Start" style="ellipse;whiteSpace=wrap;html=1;" parent="1" vertex="1">
          <mxGeometry x="255" y="-1160" width="120" height="60" as="geometry" />
        </mxCell>
        <mxCell id="p67Zzad0Gv08EdMIW1q7-6" value="no" style="edgeStyle=orthogonalEdgeStyle;rounded=0;orthogonalLoop=1;jettySize=auto;html=1;entryX=1;entryY=0.5;entryDx=0;entryDy=0;" parent="1" source="p67Zzad0Gv08EdMIW1q7-7" target="p67Zzad0Gv08EdMIW1q7-3" edge="1">
          <mxGeometry relative="1" as="geometry" />
        </mxCell>
        <mxCell id="p67Zzad0Gv08EdMIW1q7-7" value="&lt;div&gt;input.lenght &amp;gt;= 3&lt;br&gt;&lt;/div&gt;" style="rhombus;whiteSpace=wrap;html=1;rounded=1;" parent="1" vertex="1">
          <mxGeometry x="248.75" y="-950" width="132.5" height="90" as="geometry" />
        </mxCell>
        <mxCell id="p67Zzad0Gv08EdMIW1q7-8" value="input convert &amp;nbsp;to lowercase" style="rounded=1;whiteSpace=wrap;html=1;" parent="1" vertex="1">
          <mxGeometry x="260" y="-820" width="130" height="60" as="geometry" />
        </mxCell>
        <mxCell id="p67Zzad0Gv08EdMIW1q7-9" style="edgeStyle=orthogonalEdgeStyle;rounded=0;orthogonalLoop=1;jettySize=auto;html=1;entryX=0.5;entryY=0;entryDx=0;entryDy=0;" parent="1" source="p67Zzad0Gv08EdMIW1q7-10" target="p67Zzad0Gv08EdMIW1q7-16" edge="1">
          <mxGeometry relative="1" as="geometry" />
        </mxCell>
        <mxCell id="p67Zzad0Gv08EdMIW1q7-10" value="Display results" style="rounded=1;whiteSpace=wrap;html=1;" parent="1" vertex="1">
          <mxGeometry x="267.5" y="-380" width="120" height="50" as="geometry" />
        </mxCell>
        <mxCell id="p67Zzad0Gv08EdMIW1q7-11" style="edgeStyle=orthogonalEdgeStyle;rounded=0;orthogonalLoop=1;jettySize=auto;html=1;entryX=0.5;entryY=0;entryDx=0;entryDy=0;" parent="1" source="p67Zzad0Gv08EdMIW1q7-12" target="p67Zzad0Gv08EdMIW1q7-14" edge="1">
          <mxGeometry relative="1" as="geometry" />
        </mxCell>
        <mxCell id="p67Zzad0Gv08EdMIW1q7-12" value="Loop through each recipe" style="whiteSpace=wrap;html=1;rounded=1;" parent="1" vertex="1">
          <mxGeometry x="225" y="-720" width="205" height="60" as="geometry" />
        </mxCell>
        <mxCell id="p67Zzad0Gv08EdMIW1q7-13" style="edgeStyle=orthogonalEdgeStyle;rounded=0;orthogonalLoop=1;jettySize=auto;html=1;entryX=0.5;entryY=0;entryDx=0;entryDy=0;" parent="1" source="p67Zzad0Gv08EdMIW1q7-14" target="p67Zzad0Gv08EdMIW1q7-22" edge="1">
          <mxGeometry relative="1" as="geometry" />
        </mxCell>
        <mxCell id="p67Zzad0Gv08EdMIW1q7-14" value="&lt;p style=&quot;margin: 0px; font-style: normal; font-variant-caps: normal; font-stretch: normal; font-size: 13px; line-height: normal; font-family: &amp;quot;.AppleSystemUIFontMonospaced&amp;quot;; font-size-adjust: none; font-kerning: auto; font-variant-alternates: normal; font-variant-ligatures: normal; font-variant-numeric: normal; font-variant-east-asian: normal; font-variant-position: normal; font-variant-emoji: normal; font-feature-settings: normal; font-optical-sizing: auto; font-variation-settings: normal;&quot;&gt;Check if queryWord matches recipe name, description, or ingredients&lt;/p&gt;" style="whiteSpace=wrap;html=1;rounded=1;" parent="1" vertex="1">
          <mxGeometry x="202.5" y="-614" width="250" height="54" as="geometry" />
        </mxCell>
        <mxCell id="p67Zzad0Gv08EdMIW1q7-15" value="" style="edgeStyle=orthogonalEdgeStyle;rounded=0;orthogonalLoop=1;jettySize=auto;html=1;" parent="1" source="p67Zzad0Gv08EdMIW1q7-16" target="p67Zzad0Gv08EdMIW1q7-18" edge="1">
          <mxGeometry relative="1" as="geometry" />
        </mxCell>
        <mxCell id="p67Zzad0Gv08EdMIW1q7-16" value="Clear current displayed recipes" style="rounded=1;whiteSpace=wrap;html=1;" parent="1" vertex="1">
          <mxGeometry x="217.5" y="-280" width="220" height="60" as="geometry" />
        </mxCell>
        <mxCell id="p67Zzad0Gv08EdMIW1q7-17" style="edgeStyle=orthogonalEdgeStyle;rounded=0;orthogonalLoop=1;jettySize=auto;html=1;entryX=0.5;entryY=0;entryDx=0;entryDy=0;" parent="1" source="p67Zzad0Gv08EdMIW1q7-18" target="p67Zzad0Gv08EdMIW1q7-19" edge="1">
          <mxGeometry relative="1" as="geometry" />
        </mxCell>
        <mxCell id="p67Zzad0Gv08EdMIW1q7-18" value="Generate card for&lt;div&gt;each recipe&lt;/div&gt;" style="rounded=1;whiteSpace=wrap;html=1;" parent="1" vertex="1">
          <mxGeometry x="267.5" y="-140" width="120" height="60" as="geometry" />
        </mxCell>
        <mxCell id="p67Zzad0Gv08EdMIW1q7-19" value="End" style="ellipse;whiteSpace=wrap;html=1;rounded=1;" parent="1" vertex="1">
          <mxGeometry x="262.5" y="-10" width="130" height="80" as="geometry" />
        </mxCell>
        <mxCell id="p67Zzad0Gv08EdMIW1q7-20" value="" style="edgeStyle=orthogonalEdgeStyle;rounded=0;orthogonalLoop=1;jettySize=auto;html=1;" parent="1" source="p67Zzad0Gv08EdMIW1q7-22" target="p67Zzad0Gv08EdMIW1q7-23" edge="1">
          <mxGeometry relative="1" as="geometry" />
        </mxCell>
        <mxCell id="p67Zzad0Gv08EdMIW1q7-21" style="edgeStyle=orthogonalEdgeStyle;rounded=0;orthogonalLoop=1;jettySize=auto;html=1;entryX=0.5;entryY=0;entryDx=0;entryDy=0;" parent="1" source="p67Zzad0Gv08EdMIW1q7-22" target="p67Zzad0Gv08EdMIW1q7-10" edge="1">
          <mxGeometry relative="1" as="geometry" />
        </mxCell>
        <mxCell id="p67Zzad0Gv08EdMIW1q7-22" value="if&amp;nbsp;&lt;div&gt;matchsQuery&lt;/div&gt;" style="rhombus;whiteSpace=wrap;html=1;rounded=1;" parent="1" vertex="1">
          <mxGeometry x="262.5" y="-520" width="130" height="100" as="geometry" />
        </mxCell>
        <mxCell id="p67Zzad0Gv08EdMIW1q7-23" value="Error message : aucune &amp;nbsp;recette ne correspond à votre recherche" style="rounded=1;whiteSpace=wrap;html=1;" parent="1" vertex="1">
          <mxGeometry x="42.5" y="-500" width="120" height="60" as="geometry" />
        </mxCell>
        <mxCell id="p67Zzad0Gv08EdMIW1q7-24" style="edgeStyle=orthogonalEdgeStyle;rounded=0;orthogonalLoop=1;jettySize=auto;html=1;entryX=0.431;entryY=-0.05;entryDx=0;entryDy=0;entryPerimeter=0;" parent="1" source="p67Zzad0Gv08EdMIW1q7-7" target="p67Zzad0Gv08EdMIW1q7-8" edge="1">
          <mxGeometry relative="1" as="geometry" />
        </mxCell>
        <mxCell id="p67Zzad0Gv08EdMIW1q7-25" style="edgeStyle=orthogonalEdgeStyle;rounded=0;orthogonalLoop=1;jettySize=auto;html=1;entryX=0.49;entryY=-0.1;entryDx=0;entryDy=0;entryPerimeter=0;" parent="1" source="p67Zzad0Gv08EdMIW1q7-8" target="p67Zzad0Gv08EdMIW1q7-12" edge="1">
          <mxGeometry relative="1" as="geometry" />
        </mxCell>
      </root>
    </mxGraphModel>
  </diagram>
</mxfile>
